<svg xmlns="http://www.w3.org/2000/svg" viewBox="0 0 512 250" width="512" height="250"><path d=" M 447.543 90.509 C 447.543 89.129 446.423 88.009 445.043 88.009 C 443.663 88.009 442.543 89.129 442.543 90.509 C 442.543 91.889 443.663 93.009 445.043 93.009 C 446.423 93.009 447.543 91.889 447.543 90.509 L 447.543 90.509 Z  M 456.543 90.509 C 456.543 89.129 455.423 88.009 454.043 88.009 C 452.663 88.009 451.543 89.129 451.543 90.509 C 451.543 91.889 452.663 93.009 454.043 93.009 C 455.423 93.009 456.543 91.889 456.543 90.509 L 456.543 90.509 Z  M 240.451 77.105 C 237.142 77.239 232.616 78.29 230.35 79.451 C 225.441 81.966 218.938 81.303 211.455 74.008 C 206.455 69.133 191.955 59.383 176.455 56.008 C 160.955 52.633 155.685 52.998 149.955 53.008 C 144.545 52.998 138.325 53.358 131.795 54.058 C 126.205 54.658 120.665 55.608 115.205 56.908 C 113.695 57.268 112.195 57.648 110.695 58.068 C 109.255 58.468 107.815 58.898 106.395 59.358 C 103.435 60.308 100.515 61.378 97.655 62.588 C 94.945 63.718 92.295 64.978 89.705 66.358 C 87.215 67.688 84.795 69.118 82.445 70.668 C 80.155 72.168 77.945 73.778 75.815 75.488 C 75.185 75.988 74.515 76.408 73.805 76.768 C 72.915 77.228 72.005 77.618 71.065 77.948 C 70.125 78.288 69.165 78.548 68.185 78.748 C 67.405 78.908 66.615 78.998 65.815 79.008 L 53.455 79.008 C 51.065 79.008 48.775 79.958 47.095 81.648 C 45.405 83.328 44.455 85.618 44.455 88.008 L 44.455 92.008 C 44.455 94.378 45.395 96.658 47.065 98.348 C 48.735 100.038 51.015 100.988 53.385 101.008 C 55.755 101.028 65.096 103.407 67.455 112.008 L 67.455 112.008 C 69.815 120.609 73.165 133.908 74.905 138.508 C 76.765 143.428 79.005 148.188 81.605 152.758 C 84.325 157.538 87.445 162.078 90.915 166.338 C 94.505 170.728 98.495 174.778 102.845 178.418 C 107.325 182.178 112.195 185.448 117.375 188.158 C 122.795 190.998 128.525 193.178 134.455 194.658 C 140.835 196.228 147.385 197.018 153.965 197.008 C 159.175 197.008 164.375 196.388 169.455 195.168 C 174.395 193.978 179.195 192.248 183.765 190.018 C 188.295 187.798 192.585 185.138 196.595 182.078 C 200.585 179.028 204.295 175.608 207.675 171.878 C 214.415 164.458 219.805 155.918 223.615 146.648 C 225.485 142.078 226.935 137.358 227.935 132.528 C 228.935 127.748 229.445 122.888 229.455 118.008 C 229.455 113.778 228.499 107.42 227.77 104.202 C 227.04 100.985 228.577 95.697 231.19 93.663 C 233.804 91.629 240.688 88.824 243.439 88.598 C 246.189 88.372 265.811 88.372 268.561 88.598 C 271.312 88.824 278.196 91.629 280.81 93.663 C 283.423 95.697 284.96 100.985 284.23 104.202 C 283.501 107.42 282.545 113.778 282.545 118.008 C 282.555 122.888 283.065 127.748 284.065 132.528 C 285.065 137.358 286.515 142.078 288.385 146.648 C 292.195 155.918 297.585 164.458 304.325 171.878 C 307.705 175.608 311.415 179.028 315.405 182.078 C 319.415 185.138 323.705 187.798 328.235 190.018 C 332.805 192.248 337.605 193.978 342.545 195.168 C 347.625 196.388 352.825 197.008 358.035 197.008 C 364.615 197.018 371.165 196.228 377.545 194.658 C 383.475 193.178 389.205 190.998 394.625 188.158 C 399.805 185.448 404.675 182.178 409.155 178.418 C 413.505 174.778 417.495 170.728 421.085 166.338 C 424.555 162.078 427.675 157.538 430.395 152.758 C 432.995 148.188 435.235 143.428 437.095 138.508 C 438.835 133.908 442.185 120.609 444.545 112.008 L 444.545 112.008 C 446.904 103.407 456.245 101.028 458.615 101.008 C 460.985 100.988 463.265 100.038 464.935 98.348 C 466.605 96.658 467.545 94.378 467.545 92.008 L 467.545 88.008 C 467.545 85.618 466.595 83.328 464.905 81.648 C 463.225 79.958 460.935 79.008 458.545 79.008 L 446.185 79.008 C 445.385 78.998 444.595 78.908 443.815 78.748 C 442.835 78.548 441.875 78.288 440.935 77.948 C 439.995 77.618 439.085 77.228 438.195 76.768 C 437.485 76.408 436.815 75.988 436.185 75.488 C 434.055 73.778 431.845 72.168 429.555 70.668 C 427.205 69.118 424.785 67.688 422.295 66.358 C 419.705 64.978 417.055 63.718 414.345 62.588 C 411.485 61.378 408.565 60.308 405.605 59.358 C 404.185 58.898 402.745 58.468 401.305 58.068 C 399.805 57.648 398.305 57.268 396.795 56.908 C 391.335 55.608 385.795 54.658 380.205 54.058 C 373.675 53.358 367.455 52.998 362.045 53.008 C 356.315 52.998 351.045 52.633 335.545 56.008 C 320.045 59.383 305.545 69.133 300.545 74.008 C 293.062 81.303 286.559 81.966 281.65 79.451 C 279.384 78.29 274.858 77.239 271.549 77.105 Q 248.208 76.791 240.451 77.105 Z  M 64.457 90.509 C 64.457 91.889 65.577 93.009 66.957 93.009 C 68.337 93.009 69.457 91.889 69.457 90.509 C 69.457 89.129 68.337 88.009 66.957 88.009 C 65.577 88.009 64.457 89.129 64.457 90.509 L 64.457 90.509 Z  M 55.457 90.509 C 55.457 91.889 56.577 93.009 57.957 93.009 C 59.337 93.009 60.457 91.889 60.457 90.509 C 60.457 89.129 59.337 88.009 57.957 88.009 C 56.577 88.009 55.457 89.129 55.457 90.509 L 55.457 90.509 Z  M 77.455 110.998 C 77.475 114.948 77.895 118.898 78.685 122.768 C 79.565 127.168 80.805 131.488 82.395 135.678 C 84.095 140.208 86.155 144.598 88.555 148.798 C 91.055 153.188 93.915 157.368 97.115 161.278 C 100.385 165.278 104.025 168.968 107.985 172.288 C 112.025 175.678 116.415 178.628 121.085 181.078 C 125.935 183.618 131.075 185.568 136.385 186.888 C 142.135 188.308 148.035 189.018 153.945 189.008 C 158.545 189.008 163.115 188.468 167.575 187.398 C 171.955 186.338 176.205 184.808 180.255 182.828 C 184.305 180.848 188.145 178.468 191.735 175.728 C 195.345 172.968 198.695 169.878 201.745 166.508 C 207.865 159.778 212.755 152.028 216.205 143.608 C 217.895 139.498 219.205 135.238 220.105 130.898 C 220.995 126.658 221.445 122.338 221.455 118.008 C 221.455 114.388 221.035 110.778 220.205 107.258 C 219.365 103.698 218.135 100.228 216.525 96.938 C 214.875 93.528 212.865 90.308 210.535 87.318 C 208.105 84.198 205.355 81.318 202.345 78.728 C 199.165 75.988 195.715 73.558 192.075 71.478 C 188.175 69.248 184.075 67.368 179.835 65.888 C 175.255 64.278 170.545 63.078 165.755 62.288 C 160.535 61.428 155.245 60.998 149.955 61.008 C 144.905 60.998 139.855 61.338 134.855 61.998 C 130.155 62.628 125.505 63.588 120.945 64.868 C 116.695 66.068 112.535 67.598 108.515 69.438 C 104.795 71.138 101.225 73.168 97.855 75.498 C 94.735 77.658 91.835 80.128 89.215 82.868 C 86.755 85.428 84.605 88.268 82.815 91.318 C 81.085 94.268 79.745 97.428 78.835 100.718 C 77.915 104.068 77.455 107.518 77.455 110.998 L 77.455 110.998 Z  M 434.545 110.998 C 434.545 107.518 434.085 104.068 433.165 100.718 C 432.255 97.428 430.915 94.268 429.185 91.318 C 427.395 88.268 425.245 85.428 422.785 82.868 C 420.165 80.128 417.265 77.658 414.145 75.498 C 410.775 73.168 407.205 71.138 403.485 69.438 C 399.465 67.598 395.305 66.068 391.055 64.868 C 386.495 63.588 381.845 62.628 377.145 61.998 C 372.145 61.338 367.095 60.998 362.045 61.008 C 356.755 60.998 351.465 61.428 346.245 62.288 C 341.455 63.078 336.745 64.278 332.165 65.888 C 327.925 67.368 323.825 69.248 319.925 71.478 C 316.285 73.558 312.835 75.988 309.655 78.728 C 306.645 81.318 303.895 84.198 301.465 87.318 C 299.135 90.308 297.125 93.528 295.475 96.938 C 293.865 100.228 292.635 103.698 291.795 107.258 C 290.965 110.778 290.545 114.388 290.545 118.008 C 290.555 122.338 291.005 126.658 291.895 130.898 C 292.795 135.238 294.105 139.498 295.795 143.608 C 299.245 152.028 304.135 159.778 310.255 166.508 C 313.305 169.878 316.655 172.968 320.265 175.728 C 323.855 178.468 327.695 180.848 331.745 182.828 C 335.795 184.808 340.045 186.338 344.425 187.398 C 348.885 188.468 353.455 189.008 358.055 189.008 C 363.965 189.018 369.865 188.308 375.615 186.888 C 380.925 185.568 386.065 183.618 390.915 181.078 C 395.585 178.628 399.975 175.678 404.015 172.288 C 407.975 168.968 411.615 165.278 414.885 161.278 C 418.085 157.368 420.945 153.188 423.445 148.798 C 425.845 144.598 427.905 140.208 429.605 135.678 C 431.195 131.488 432.435 127.168 433.315 122.768 C 434.105 118.898 434.525 114.948 434.545 110.998 L 434.545 110.998 Z " fill-rule="evenodd" fill="rgb(0,0,0)"/></svg>
