<svg xmlns="http://www.w3.org/2000/svg" viewBox="0 0 512 512"><path d="M31 203.211V467c0 6.927 1.703 13.412 4.51 19.279L174.789 347 31 203.211zM337.211 347L476.49 486.279c2.807-5.867 4.51-12.352 4.51-19.279V203.211L337.211 347zM256 152c-8.262 0-15 6.724-15 15s6.738 15 15 15c10.388 0 13.143-7.123 14.791-16.033C270.231 158.198 263.896 152 256 152zM309.789 362H202.211L56.721 507.49C62.588 510.297 69.073 512 76 512h360c6.927 0 13.412-1.703 19.279-4.51L309.789 362zM46 175.789l45 45v-90zM421 130.789v90l45-45z"/><path d="M371.781 0H137.406C128.345 0 121 7.345 121 16.406v234.383L202.211 332h107.578L391 250.789V19.219C391 8.605 382.395 0 371.781 0zm-85.792 200.305C278.011 207.496 267.561 212 256 212c-24.814 0-45-20.186-45-45s20.186-45 45-45 45 20.186 45 45c0 19.828 30 19.828 30 0 0-41.353-33.633-75-75-75s-75 33.647-75 75c0 25.664 12.949 49.292 34.658 63.208 22.266 14.238 49.834 15.586 75.703 3.706 17.883-8.308 30.606 18.951 12.539 27.246-34.383 15.818-72.571 14.699-104.414-5.698C169.135 236.009 151 202.947 151 167c0-57.891 47.109-105 105-105s105 47.109 105 105c0 38.56-45.848 59.637-75.011 33.305z"/></svg>
