<svg xmlns="http://www.w3.org/2000/svg" viewBox="0 0 512 512"><path d=" M 329.207 88.054 C 329.207 59.533 352.362 36.378 380.883 36.378 C 409.403 36.378 432.559 59.533 432.559 88.054 C 432.559 116.575 409.403 139.73 380.883 139.73 C 352.362 139.73 329.207 116.575 329.207 88.054 Z  M 204.324 88.054 C 204.324 59.533 227.479 36.378 256 36.378 C 284.521 36.378 307.676 59.533 307.676 88.054 C 307.676 116.575 284.521 139.73 256 139.73 C 227.479 139.73 204.324 116.575 204.324 88.054 Z  M 79.441 88.054 C 79.441 59.533 102.597 36.378 131.117 36.378 C 159.638 36.378 182.793 59.533 182.793 88.054 C 182.793 116.575 159.638 139.73 131.117 139.73 C 102.597 139.73 79.441 116.575 79.441 88.054 Z  M 329.207 311.982 C 329.207 283.461 352.362 260.306 380.883 260.306 C 409.403 260.306 432.559 283.461 432.559 311.982 C 432.559 340.503 409.403 363.658 380.883 363.658 C 352.362 363.658 329.207 340.503 329.207 311.982 Z  M 204.324 311.982 C 204.324 283.461 227.479 260.306 256 260.306 C 284.521 260.306 307.676 283.461 307.676 311.982 C 307.676 340.503 284.521 363.658 256 363.658 C 227.479 363.658 204.324 340.503 204.324 311.982 Z  M 79.441 311.982 C 79.441 283.461 102.597 260.306 131.117 260.306 C 159.638 260.306 182.793 283.461 182.793 311.982 C 182.793 340.503 159.638 363.658 131.117 363.658 C 102.597 363.658 79.441 340.503 79.441 311.982 Z  M 391.649 200.018 C 391.649 171.497 414.804 148.342 443.324 148.342 C 471.845 148.342 495 171.497 495 200.018 C 495 228.539 471.845 251.694 443.324 251.694 C 414.804 251.694 391.649 228.539 391.649 200.018 Z  M 266.766 200.018 C 266.766 171.497 289.921 148.342 318.441 148.342 C 346.962 148.342 370.117 171.497 370.117 200.018 C 370.117 228.539 346.962 251.694 318.441 251.694 C 289.921 251.694 266.766 228.539 266.766 200.018 Z  M 141.883 200.018 C 141.883 171.497 165.038 148.342 193.559 148.342 C 222.079 148.342 245.234 171.497 245.234 200.018 C 245.234 228.539 222.079 251.694 193.559 251.694 C 165.038 251.694 141.883 228.539 141.883 200.018 Z  M 17 200.018 C 17 171.497 40.155 148.342 68.676 148.342 C 97.196 148.342 120.351 171.497 120.351 200.018 C 120.351 228.539 97.196 251.694 68.676 251.694 C 40.155 251.694 17 228.539 17 200.018 Z  M 266.766 423.946 C 266.766 395.425 289.921 372.27 318.441 372.27 C 346.962 372.27 370.117 395.425 370.117 423.946 C 370.117 452.467 346.962 475.622 318.441 475.622 C 289.921 475.622 266.766 452.467 266.766 423.946 Z  M 141.883 423.946 C 141.883 395.425 165.038 372.27 193.559 372.27 C 222.079 372.27 245.234 395.425 245.234 423.946 C 245.234 452.467 222.079 475.622 193.559 475.622 C 165.038 475.622 141.883 452.467 141.883 423.946 Z "/></svg>
